<svg xmlns="http://www.w3.org/2000/svg" xmlns:xlink="http://www.w3.org/1999/xlink" width="500" zoomAndPan="magnify" viewBox="0 0 375 374.999991" height="500" preserveAspectRatio="xMidYMid meet" version="1.0"><defs><clipPath id="0c7a77ac06"><path d="M 297.90625 35.078125 L 331.050781 35.078125 L 331.050781 68.222656 L 297.90625 68.222656 Z M 297.90625 35.078125 " clip-rule="nonzero"/></clipPath><clipPath id="50cb75d7e9"><path d="M 314.476562 35.078125 C 305.324219 35.078125 297.90625 42.5 297.90625 51.652344 C 297.90625 60.804688 305.324219 68.222656 314.476562 68.222656 C 323.628906 68.222656 331.050781 60.804688 331.050781 51.652344 C 331.050781 42.5 323.628906 35.078125 314.476562 35.078125 Z M 314.476562 35.078125 " clip-rule="nonzero"/></clipPath><clipPath id="f683c0db63"><path d="M 304.785156 40.359375 L 324.167969 40.359375 L 324.167969 189.304688 L 304.785156 189.304688 Z M 304.785156 40.359375 " clip-rule="nonzero"/></clipPath><clipPath id="90003097e9"><path d="M 304.785156 179.613281 L 304.785156 50.109375 C 304.785156 44.757812 309.125 40.417969 314.476562 40.417969 C 319.828125 40.417969 324.167969 44.757812 324.167969 50.109375 L 324.167969 179.613281 C 324.167969 184.964844 319.828125 189.304688 314.476562 189.304688 C 309.125 189.304688 304.785156 184.964844 304.785156 179.613281 Z M 304.785156 179.613281 " clip-rule="nonzero"/></clipPath><clipPath id="d3a3e435ee"><path d="M 288 256 L 301 256 L 301 264 L 288 264 Z M 288 256 " clip-rule="nonzero"/></clipPath><clipPath id="8c1fa54d10"><path d="M 299.074219 264.410156 L 287.640625 259.707031 L 289.464844 255.273438 L 300.898438 259.976562 Z M 299.074219 264.410156 " clip-rule="nonzero"/></clipPath><clipPath id="4d91873907"><path d="M 296.859375 263.5 L 289.859375 260.621094 C 288.636719 260.117188 288.050781 258.714844 288.554688 257.488281 C 289.058594 256.265625 290.460938 255.679688 291.683594 256.183594 L 298.683594 259.0625 C 299.90625 259.566406 300.492188 260.96875 299.988281 262.191406 C 299.484375 263.417969 298.082031 264.003906 296.859375 263.5 Z M 296.859375 263.5 " clip-rule="nonzero"/></clipPath><clipPath id="56b4c758b6"><path d="M 271 172 L 324 172 L 324 270 L 271 270 Z M 271 172 " clip-rule="nonzero"/></clipPath><clipPath id="d4821adb9e"><path d="M 268.945312 265.28125 L 308.027344 169.449219 L 325.984375 176.773438 L 286.902344 272.605469 Z M 268.945312 265.28125 " clip-rule="nonzero"/></clipPath><clipPath id="3e40a3ce8a"><path d="M 272.605469 256.300781 L 304.359375 178.4375 C 305.332031 176.058594 307.207031 174.160156 309.578125 173.160156 C 311.949219 172.164062 314.621094 172.148438 317 173.121094 C 319.382812 174.09375 321.28125 175.96875 322.277344 178.339844 C 323.277344 180.710938 323.289062 183.382812 322.320312 185.761719 L 290.566406 263.625 C 289.59375 266.003906 287.714844 267.902344 285.347656 268.902344 C 282.976562 269.898438 280.304688 269.914062 277.921875 268.941406 C 275.542969 267.96875 273.644531 266.09375 272.644531 263.722656 C 271.648438 261.351562 271.632812 258.679688 272.605469 256.300781 Z M 272.605469 256.300781 " clip-rule="nonzero"/></clipPath><clipPath id="db0795266d"><path d="M 295 258 L 301 258 L 301 264 L 295 264 Z M 295 258 " clip-rule="nonzero"/></clipPath><clipPath id="9cc52a3a66"><path d="M 299.261719 264.410156 L 294.707031 262.539062 L 296.53125 258.101562 L 301.085938 259.976562 Z M 299.261719 264.410156 " clip-rule="nonzero"/></clipPath><clipPath id="d182baa44c"><path d="M 297.046875 263.5 L 296.929688 263.453125 C 295.703125 262.949219 295.117188 261.546875 295.621094 260.320312 C 296.125 259.097656 297.527344 258.511719 298.753906 259.015625 L 298.871094 259.0625 C 300.09375 259.566406 300.679688 260.96875 300.175781 262.195312 C 299.671875 263.417969 298.269531 264.003906 297.046875 263.5 Z M 297.046875 263.5 " clip-rule="nonzero"/></clipPath></defs><g clip-path="url(#0c7a77ac06)"><g clip-path="url(#50cb75d7e9)"><path fill="#d9d9d9" d="M 297.90625 35.078125 L 331.050781 35.078125 L 331.050781 68.222656 L 297.90625 68.222656 Z M 297.90625 35.078125 " fill-opacity="1" fill-rule="nonzero"/></g></g><g clip-path="url(#f683c0db63)"><g clip-path="url(#90003097e9)"><path fill="#a6a6a6" d="M 304.785156 189.304688 L 304.785156 40.433594 L 324.167969 40.433594 L 324.167969 189.304688 Z M 304.785156 189.304688 " fill-opacity="1" fill-rule="nonzero"/></g></g><g clip-path="url(#d3a3e435ee)"><g clip-path="url(#8c1fa54d10)"><g clip-path="url(#4d91873907)"><path fill="#737373" d="M 299.074219 264.410156 L 287.640625 259.707031 L 289.464844 255.273438 L 300.898438 259.976562 Z M 299.074219 264.410156 " fill-opacity="1" fill-rule="nonzero"/></g></g></g><g clip-path="url(#56b4c758b6)"><g clip-path="url(#d4821adb9e)"><g clip-path="url(#3e40a3ce8a)"><path fill="#a6a6a6" d="M 268.945312 265.28125 L 308.027344 169.449219 L 325.984375 176.773438 L 286.902344 272.605469 Z M 268.945312 265.28125 " fill-opacity="1" fill-rule="nonzero"/></g></g></g><g clip-path="url(#db0795266d)"><g clip-path="url(#9cc52a3a66)"><g clip-path="url(#d182baa44c)"><path fill="#d9d9d9" d="M 299.261719 264.410156 L 294.707031 262.539062 L 296.53125 258.101562 L 301.085938 259.976562 Z M 299.261719 264.410156 " fill-opacity="1" fill-rule="nonzero"/></g></g></g></svg>