<svg xmlns="http://www.w3.org/2000/svg" xmlns:xlink="http://www.w3.org/1999/xlink" width="500" zoomAndPan="magnify" viewBox="0 0 375 374.999991" height="500" preserveAspectRatio="xMidYMid meet" version="1.0"><defs><clipPath id="d3a7dfc2d6"><path d="M 35 35 L 340 35 L 340 340 L 35 340 Z M 35 35 " clip-rule="nonzero"/></clipPath><clipPath id="9134ca51f3"><path d="M -3.503906 87.59375 L 287.40625 -3.503906 L 378.503906 287.40625 L 87.59375 378.503906 Z M -3.503906 87.59375 " clip-rule="nonzero"/></clipPath><clipPath id="3af8d1999c"><path d="M 141.953125 42.042969 C 61.617188 67.199219 16.890625 152.714844 42.046875 233.050781 C 67.203125 313.382812 152.71875 358.109375 233.050781 332.953125 C 313.382812 307.796875 358.113281 222.28125 332.957031 141.949219 C 307.800781 61.617188 222.285156 16.886719 141.953125 42.042969 Z M 141.953125 42.042969 " clip-rule="nonzero"/></clipPath><clipPath id="d4d3632127"><path d="M 108 108 L 267 108 L 267 267 L 108 267 Z M 108 108 " clip-rule="nonzero"/></clipPath><clipPath id="8bfd194de0"><path d="M 88.214844 135.566406 L 239.433594 88.210938 L 286.785156 239.425781 L 135.570312 286.78125 Z M 88.214844 135.566406 " clip-rule="nonzero"/></clipPath><clipPath id="339b47c444"><path d="M 163.824219 111.886719 C 122.066406 124.964844 98.816406 169.414062 111.894531 211.171875 C 124.96875 252.929688 169.421875 276.179688 211.179688 263.105469 C 252.933594 250.027344 276.1875 205.578125 263.109375 163.820312 C 250.03125 122.0625 205.582031 98.8125 163.824219 111.886719 Z M 163.824219 111.886719 " clip-rule="nonzero"/></clipPath><clipPath id="3ecdd8b6e0"><path d="M 173 173 L 202 173 L 202 202 L 173 202 Z M 173 173 " clip-rule="nonzero"/></clipPath><clipPath id="18e12d2cab"><path d="M 170.445312 178.578125 L 196.421875 170.441406 L 204.558594 196.417969 L 178.578125 204.554688 Z M 170.445312 178.578125 " clip-rule="nonzero"/></clipPath><clipPath id="01d1ebe65f"><path d="M 183.433594 174.507812 C 176.261719 176.753906 172.265625 184.390625 174.511719 191.566406 C 176.757812 198.738281 184.394531 202.734375 191.570312 200.488281 C 198.742188 198.242188 202.734375 190.605469 200.488281 183.429688 C 198.242188 176.257812 190.605469 172.261719 183.433594 174.507812 Z M 183.433594 174.507812 " clip-rule="nonzero"/></clipPath><clipPath id="a603ae3ee4"><path d="M 67 116 L 284 116 L 284 308 L 67 308 Z M 67 116 " clip-rule="nonzero"/></clipPath><clipPath id="21cac64b3e"><path d="M 207.828125 361.910156 L 14.609375 219.902344 L 90.722656 116.339844 L 283.941406 258.34375 Z M 207.828125 361.910156 " clip-rule="nonzero"/></clipPath><clipPath id="9e1e5341a3"><path d="M 207.828125 361.910156 L 14.609375 219.902344 L 90.722656 116.339844 L 283.941406 258.34375 Z M 207.828125 361.910156 " clip-rule="nonzero"/></clipPath></defs><g clip-path="url(#d3a7dfc2d6)"><g clip-path="url(#9134ca51f3)"><g clip-path="url(#3af8d1999c)"><path fill="#000000" d="M -3.503906 87.59375 L 287.40625 -3.503906 L 378.503906 287.40625 L 87.59375 378.503906 Z M -3.503906 87.59375 " fill-opacity="1" fill-rule="nonzero"/></g></g></g><g clip-path="url(#d4d3632127)"><g clip-path="url(#8bfd194de0)"><g clip-path="url(#339b47c444)"><path fill="#295f98" d="M 88.214844 135.566406 L 239.433594 88.210938 L 286.785156 239.425781 L 135.570312 286.78125 Z M 88.214844 135.566406 " fill-opacity="1" fill-rule="nonzero"/></g></g></g><g clip-path="url(#3ecdd8b6e0)"><g clip-path="url(#18e12d2cab)"><g clip-path="url(#01d1ebe65f)"><path fill="#000000" d="M 170.445312 178.578125 L 196.421875 170.441406 L 204.558594 196.417969 L 178.578125 204.554688 Z M 170.445312 178.578125 " fill-opacity="1" fill-rule="nonzero"/></g></g></g><g clip-path="url(#a603ae3ee4)"><g clip-path="url(#21cac64b3e)"><g clip-path="url(#9e1e5341a3)"><path fill="#d9d9d9" d="M 91.117188 116.65625 L 92.007812 117.3125 C 53.304688 169.972656 64.660156 244.300781 117.320312 283.007812 C 169.984375 321.710938 244.3125 310.351562 283.015625 257.691406 L 283.90625 258.34375 C 282.894531 259.722656 281.851562 261.074219 280.78125 262.40625 C 279.710938 263.738281 278.613281 265.046875 277.484375 266.328125 C 276.359375 267.613281 275.207031 268.871094 274.023438 270.109375 C 272.84375 271.34375 271.636719 272.550781 270.40625 273.734375 C 269.175781 274.917969 267.917969 276.074219 266.636719 277.203125 C 265.355469 278.332031 264.046875 279.433594 262.71875 280.507812 C 261.390625 281.582031 260.039062 282.625 258.664062 283.640625 C 257.292969 284.65625 255.898438 285.640625 254.480469 286.597656 C 253.066406 287.554688 251.628906 288.480469 250.175781 289.375 C 248.71875 290.269531 247.246094 291.128906 245.753906 291.960938 C 244.261719 292.792969 242.75 293.589844 241.222656 294.359375 C 239.699219 295.125 238.15625 295.859375 236.597656 296.558594 C 235.039062 297.257812 233.46875 297.925781 231.878906 298.558594 C 230.292969 299.191406 228.695312 299.792969 227.082031 300.355469 C 225.46875 300.921875 223.847656 301.449219 222.210938 301.945312 C 220.578125 302.441406 218.933594 302.902344 217.277344 303.324219 C 215.621094 303.75 213.960938 304.140625 212.289062 304.492188 C 210.617188 304.847656 208.9375 305.164062 207.253906 305.445312 C 205.570312 305.726562 203.878906 305.972656 202.183594 306.179688 C 200.488281 306.390625 198.789062 306.5625 197.085938 306.699219 C 195.382812 306.835938 193.679688 306.9375 191.972656 307 C 190.265625 307.0625 188.558594 307.089844 186.847656 307.082031 C 185.140625 307.070312 183.433594 307.023438 181.726562 306.941406 C 180.019531 306.859375 178.316406 306.738281 176.617188 306.582031 C 174.914062 306.425781 173.21875 306.234375 171.523438 306.007812 C 169.832031 305.777344 168.144531 305.511719 166.464844 305.210938 C 164.78125 304.910156 163.105469 304.574219 161.441406 304.203125 C 159.773438 303.832031 158.113281 303.421875 156.464844 302.980469 C 154.816406 302.535156 153.175781 302.058594 151.546875 301.542969 C 149.917969 301.03125 148.300781 300.480469 146.695312 299.898438 C 145.089844 299.316406 143.496094 298.699219 141.917969 298.046875 C 140.335938 297.394531 138.773438 296.710938 137.222656 295.992188 C 135.671875 295.273438 134.140625 294.523438 132.621094 293.738281 C 131.101562 292.957031 129.601562 292.140625 128.121094 291.292969 C 126.636719 290.445312 125.171875 289.5625 123.726562 288.652344 C 122.28125 287.742188 120.859375 286.800781 119.453125 285.828125 C 118.046875 284.855469 116.664062 283.855469 115.304688 282.824219 C 113.941406 281.792969 112.601562 280.734375 111.285156 279.644531 C 109.96875 278.554688 108.675781 277.441406 107.40625 276.296875 C 106.136719 275.152344 104.894531 273.980469 103.675781 272.785156 C 102.457031 271.585938 101.265625 270.363281 100.097656 269.117188 C 98.933594 267.867188 97.792969 266.597656 96.683594 265.300781 C 95.570312 264.003906 94.488281 262.683594 93.429688 261.339844 C 92.375 259.996094 91.351562 258.628906 90.351562 257.242188 C 89.355469 255.855469 88.390625 254.445312 87.453125 253.019531 C 86.515625 251.589844 85.613281 250.140625 84.738281 248.675781 C 83.863281 247.207031 83.019531 245.722656 82.210938 244.21875 C 81.398438 242.714844 80.621094 241.195312 79.875 239.65625 C 79.128906 238.121094 78.417969 236.566406 77.738281 235 C 77.058594 233.433594 76.414062 231.851562 75.800781 230.257812 C 75.191406 228.660156 74.613281 227.054688 74.070312 225.433594 C 73.527344 223.8125 73.019531 222.183594 72.546875 220.542969 C 72.074219 218.902344 71.636719 217.25 71.234375 215.589844 C 70.832031 213.929688 70.464844 212.261719 70.136719 210.585938 C 69.804688 208.910156 69.511719 207.226562 69.25 205.539062 C 68.992188 203.851562 68.769531 202.15625 68.585938 200.457031 C 68.398438 198.761719 68.25 197.058594 68.136719 195.355469 C 68.023438 193.648438 67.945312 191.945312 67.90625 190.234375 C 67.867188 188.527344 67.863281 186.820312 67.894531 185.113281 C 67.929688 183.40625 67.996094 181.699219 68.105469 179.992188 C 68.210938 178.289062 68.351562 176.585938 68.53125 174.886719 C 68.710938 173.1875 68.925781 171.496094 69.175781 169.804688 C 69.429688 168.113281 69.714844 166.429688 70.039062 164.753906 C 70.363281 163.078125 70.722656 161.40625 71.117188 159.746094 C 72.96875 151.964844 75.574219 144.445312 78.941406 137.191406 C 82.308594 129.9375 86.367188 123.09375 91.117188 116.65625 Z M 91.117188 116.65625 " fill-opacity="1" fill-rule="nonzero"/></g></g></g></svg>