<svg version="1.1" viewBox="0.0 0.0 500.0 500.0" fill="none" stroke="none" stroke-linecap="square" stroke-miterlimit="10" xmlns:xlink="http://www.w3.org/1999/xlink" xmlns="http://www.w3.org/2000/svg"><clipPath id="g28f77d11b9f_0_72.0"><path d="m0 0l500.0 0l0 500.0l-500.0 0l0 -500.0z" clip-rule="nonzero"/></clipPath><g clip-path="url(#g28f77d11b9f_0_72.0)"><path fill="#000000" fill-opacity="0.0" d="m0 0l500.0 0l0 500.0l-500.0 0z" fill-rule="evenodd"/><path fill="#d9d9d9" d="m434.2701 28.855543c-13.275726 0 -24.03778 10.762056 -24.03778 24.037786c0 13.27573 10.762054 24.037792 24.03778 24.037792c13.275726 0 24.03778 -10.762062 24.03778 -24.037792c0 -13.27573 -10.762054 -24.037786 -24.03778 -24.037786z" fill-rule="evenodd"/><path fill="#000000" fill-opacity="0.0" d="m414.7394 32.23586l39.05548 0l0 40.191135l-39.05548 0z" fill-rule="evenodd"/><path fill="#a6a6a6" d="m420.2122 238.52586l0 -187.8602c0 -3.729103 1.4813232 -7.305168 4.118103 -9.941963c2.6367798 -2.636795 6.2131042 -4.1181145 9.941956 -4.1181145l0 0c3.729126 0 7.305176 1.4813194 9.941986 4.1181145c2.6367798 2.636795 4.118103 6.21286 4.118103 9.941963l0 187.8602c0 3.7288513 -1.4813232 7.305176 -4.118103 9.941971c-2.6368103 2.636795 -6.21286 4.118103 -9.941986 4.118103l0 0c-3.7288513 0 -7.305176 -1.481308 -9.941956 -4.118103c-2.6367798 -2.636795 -4.118103 -6.2131195 -4.118103 -9.941971z" fill-rule="evenodd"/><path fill="#000000" fill-opacity="0.0" d="m415.32068 252.58594l0 -215.99678l33.04657 0l0 215.99678z" fill-rule="evenodd"/><path fill="#737373" d="m408.73117 360.19873l-10.149902 -4.1751404c-0.85317993 -0.35098267 -1.5318604 -1.0263367 -1.8870239 -1.8778992c-0.3550415 -0.8512573 -0.35754395 -1.809021 -0.006591797 -2.662201l0 0c0.7307434 -1.7764282 2.7635803 -2.6240845 4.5400085 -1.8933716l10.149902 4.175171c0.85317993 0.35095215 1.532074 1.0263977 1.8871155 1.877655c0.35516357 0.851593 0.35742188 1.8092346 0.0065612793 2.662201l0 0c-0.35095215 0.85317993 -1.0263977 1.532074 -1.8778687 1.8870239c-0.8513489 0.35525513 -1.809021 0.35751343 -2.662201 0.0065612793z" fill-rule="evenodd"/><path fill="#000000" fill-opacity="0.0" d="m410.08722 366.04556l-16.598297 -6.8277283l4.512726 -10.970551l16.598328 6.8277283z" fill-rule="evenodd"/><path fill="#a6a6a6" d="m373.5381 349.76404l46.06305 -112.94324c2.934082 -7.1941833 11.14444 -10.6475525 18.338379 -7.713562l0 0c3.4548035 1.4090118 6.2082214 4.132553 7.654785 7.5717926c1.4465942 3.4392548 1.4677124 7.312042 0.058685303 10.76683l-46.06305 112.94321c-1.4089355 3.4545593 -4.1324463 6.2079773 -7.5717163 7.6545715c-3.4392395 1.4465942 -7.3120117 1.4676819 -10.766815 0.058685303l0 0c-3.4545593 -1.4089355 -6.2079773 -4.132477 -7.6545715 -7.5717163c-1.4465942 -3.4392395 -1.4676819 -7.3120117 -0.058746338 -10.766571z" fill-rule="evenodd"/><path fill="#000000" fill-opacity="0.0" d="m363.69638 360.94263l56.696075 -139.01457l30.598877 12.479538l-56.696045 139.01456z" fill-rule="evenodd"/><path fill="#d9d9d9" d="m408.99423 360.19867l-0.17001343 -0.06994629c-0.85321045 -0.35095215 -1.5321045 -1.0263977 -1.8870239 -1.8778992c-0.35528564 -0.85131836 -0.35754395 -1.8089905 -0.006591797 -2.6621704l0 0c0.7307434 -1.7764282 2.7633362 -2.6242065 4.5400085 -1.8933716l0.17001343 0.06994629c0.85317993 0.35095215 1.532074 1.0263977 1.8871155 1.877655c0.35516357 0.8515625 0.35742188 1.8092346 0.0065612793 2.662201l0 0c-0.35095215 0.85317993 -1.0263977 1.532074 -1.8778687 1.8870239c-0.8513489 0.35525513 -1.809021 0.35751343 -2.662201 0.0065612793z" fill-rule="evenodd"/><path fill="#000000" fill-opacity="0.0" d="m410.3503 366.04547l-6.6250916 -2.7252197l4.512726 -10.970551l6.6250916 2.7252197z" fill-rule="evenodd"/></g></svg>